<svg class="svg-icon" style="width: 1em; height: 1em;vertical-align: middle;fill: currentColor;overflow: hidden;" viewBox="0 0 1024 1024" version="1.1" xmlns="http://www.w3.org/2000/svg"><path d="M926.47619 1023.804952C912.993524 1023.804952 902.095238 1012.882286 902.095238 999.424 902.095238 895.21981 861.525333 772.900571 787.821714 699.196952 778.313143 689.688381 778.313143 674.230857 787.797333 664.697905 797.330286 655.189333 812.763429 655.189333 822.272 664.697905 905.191619 747.593143 950.857143 882.200381 950.857143 999.424 950.857143 1012.882286 939.958857 1023.804952 926.47619 1023.804952ZM512 585.337905C510.610286 585.337905 509.269333 585.142857 507.904 585.142857 405.23581 586.215619 308.833524 626.492952 236.153905 699.196952 162.474667 772.900571 121.904762 895.21981 121.904762 999.424 121.904762 1012.882286 111.006476 1023.804952 97.52381 1023.804952 84.041143 1023.804952 73.142857 1012.882286 73.142857 999.424 73.142857 882.200381 118.784 747.593143 201.679238 664.722286 253.318095 613.083429 315.562667 575.926857 383.512381 555.227429 286.500571 507.538286 219.428571 407.966476 219.428571 292.766476 219.428571 131.437714 350.671238 0.195048 512 0.195048 673.328762 0.195048 804.571429 131.437714 804.571429 292.766476 804.571429 454.095238 673.328762 585.337905 512 585.337905ZM512 48.956952C377.563429 48.956952 268.190476 158.329905 268.190476 292.766476 268.190476 425.837714 375.393524 534.162286 507.928381 536.380952 509.269333 536.356571 510.610286 536.185905 511.951238 536.185905 512.512 536.185905 512.999619 536.454095 513.560381 536.502857 647.265524 535.649524 755.809524 426.666667 755.809524 292.766476 755.809524 158.329905 646.436571 48.956952 512 48.956952Z"  /></svg>